<svg width="166" height="167" viewBox="0 0 166 167" fill="none" xmlns="http://www.w3.org/2000/svg">
<path d="M73.6147 25.5161C76.826 16.7855 89.174 16.7855 92.3853 25.5161L103.83 56.632C104.838 59.3711 106.992 61.5334 109.727 62.5516L140.825 74.1283C149.507 77.3602 149.507 89.6398 140.825 92.8717L109.727 104.448C106.992 105.467 104.838 107.629 103.83 110.368L92.3853 141.484C89.174 150.214 76.826 150.214 73.6147 141.484L62.1698 110.368C61.1623 107.629 59.0084 105.467 56.2732 104.448L25.175 92.8717C16.4933 89.6398 16.4933 77.3602 25.175 74.1283L56.2732 62.5516C59.0084 61.5334 61.1623 59.3711 62.1698 56.632L73.6147 25.5161Z" fill="url(#paint0_linear_897_1201)"/>
<path d="M64.4972 113.162C64.4972 113.162 58.8036 116.297 56.0623 126.094C53.3209 135.891 142.099 63 128.603 63C115.107 63 118.059 63 118.059 63" stroke="url(#paint1_linear_897_1201)" stroke-width="10"/>
<path d="M117.5 51.6951L120.643 59.8488L120.684 59.956L120.792 59.9945L129.253 63L120.792 66.0055L120.684 66.044L120.643 66.1512L117.5 74.3049L114.357 66.1512L114.316 66.044L114.208 66.0055L105.747 63L114.208 59.9945L114.316 59.956L114.357 59.8488L117.5 51.6951Z" fill="white" stroke="#724CF9" stroke-width="0.5"/>
<defs>
<linearGradient id="paint0_linear_897_1201" x1="83" y1="0" x2="83" y2="167" gradientUnits="userSpaceOnUse">
<stop stop-color="#89D5FF"/>
<stop offset="1" stop-color="#9747FF"/>
</linearGradient>
<linearGradient id="paint1_linear_897_1201" x1="93" y1="63" x2="93" y2="127" gradientUnits="userSpaceOnUse">
<stop stop-color="#724CF9"/>
<stop offset="1" stop-color="#F896D8"/>
</linearGradient>
</defs>
</svg>
