<svg width="184" height="225" viewBox="0 0 184 225" fill="none" xmlns="http://www.w3.org/2000/svg">
<path d="M63.0437 27.494C66.1381 18.4972 78.8619 18.4972 81.9563 27.494L90.5887 52.5923C91.5364 55.3478 93.6389 57.5529 96.3462 58.6307L121.662 68.7092C130.064 72.0539 130.064 83.9461 121.662 87.2908L96.3462 97.3693C93.6389 98.4471 91.5364 100.652 90.5887 103.408L81.9563 128.506C78.8619 137.503 66.1381 137.503 63.0437 128.506L54.4113 103.408C53.4636 100.652 51.3611 98.4471 48.6538 97.3693L23.3376 87.2908C14.9359 83.9461 14.9359 72.0539 23.3376 68.7092L48.6538 58.6307C51.3611 57.5529 53.4636 55.3478 54.4113 52.5923L63.0437 27.494Z" fill="url(#paint0_linear_1320_1798)"/>
<path d="M118.501 127.881C121.516 118.713 134.484 118.713 137.499 127.881L141.695 140.636C142.603 143.397 144.668 145.626 147.351 146.743L161.823 152.768C170.032 156.185 170.032 167.815 161.823 171.232L147.351 177.257C144.668 178.374 142.603 180.603 141.695 183.364L137.499 196.119C134.484 205.287 121.516 205.287 118.501 196.119L114.305 183.364C113.397 180.603 111.332 178.374 108.649 177.257L94.177 171.232C85.9679 167.815 85.9679 156.185 94.177 152.768L108.649 146.743C111.332 145.626 113.397 143.397 114.305 140.636L118.501 127.881Z" fill="url(#paint1_linear_1320_1798)"/>
<defs>
<linearGradient id="paint0_linear_1320_1798" x1="72.5" y1="0" x2="72.5" y2="156" gradientUnits="userSpaceOnUse">
<stop stop-color="#FFD15B"/>
<stop offset="1" stop-color="#FFD15B"/>
</linearGradient>
<linearGradient id="paint1_linear_1320_1798" x1="128" y1="99" x2="128" y2="225" gradientUnits="userSpaceOnUse">
<stop stop-color="#FFD15B"/>
<stop offset="0.0001" stop-color="#FFD15B"/>
<stop offset="1" stop-color="#FFD15B"/>
</linearGradient>
</defs>
</svg>
